<?xml version="1.0" encoding="utf-8"?>
<svg version="1.1" id="Layer_1" xmlns="http://www.w3.org/2000/svg" xmlns:xlink="http://www.w3.org/1999/xlink" x="0px" y="0px"
	 viewBox="0 0 512 512" style="enable-background:new 0 0 512 512;" xml:space="preserve">
<g>
	<path d="M437,151.7c-5.3,0-10.3,1.9-14.2,5.2l-104-104c-3.9-3.9-10.2-3.9-14.1,0c-3.9,3.9-3.9,10.2,0,14.1l104,104
		c-3.3,3.9-5.2,9-5.2,14.5c0,12.7,10.3,23,23,23s23-10.3,23-23S449.7,151.7,437,151.7z"/>
	<path d="M451.5,197.7H60.5C27.1,197.7,0,224.8,0,258.2v146.1c0,33.4,27.1,60.5,60.5,60.5h391c33.4,0,60.5-27.1,60.5-60.5V258.2
		C512,224.8,484.9,197.7,451.5,197.7z M123,412.2c-29.3,0-53-23.7-53-53s23.7-53,53-53s53,23.7,53,53S152.3,412.2,123,412.2z
		 M266,412.2c-5.5,0-10-4.5-10-10v-86.4c0-5.5,4.5-10,10-10s10,4.5,10,10v86.4C276,407.7,271.5,412.2,266,412.2z M316,412.2
		c-5.5,0-10-4.5-10-10v-86.4c0-5.5,4.5-10,10-10s10,4.5,10,10v86.4C326,407.7,321.5,412.2,316,412.2z M366,412.2
		c-5.5,0-10-4.5-10-10v-86.4c0-5.5,4.5-10,10-10s10,4.5,10,10v86.4C376,407.7,371.5,412.2,366,412.2z M442,412.2
		c-29.3,0-53-23.7-53-53s23.7-53,53-53s53,23.7,53,53S471.3,412.2,442,412.2z"/>
	<path d="M123,326.2c-18.2,0-33,14.8-33,33s14.8,33,33,33s33-14.8,33-33S141.2,326.2,123,326.2z"/>
	<path d="M442,326.2c-18.2,0-33,14.8-33,33s14.8,33,33,33s33-14.8,33-33S460.2,326.2,442,326.2z"/>
</g>
</svg>
